inDegrees=yes
name=ik_data_2024_11_07_18_52
DataType=double
version=3
OpenSimVersion=4.5.1
endheader
time	pelvis_tilt	pelvis_list	pelvis_rotation	pelvis_tx	pelvis_ty	pelvis_tz	hip_flexion_r	hip_adduction_r	hip_rotation_r	knee_angle_r	knee_angle_r_beta	ankle_angle_r	subtalar_angle_r	mtp_angle_r	hip_flexion_l	hip_adduction_l	hip_rotation_l	knee_angle_l	knee_angle_l_beta	ankle_angle_l	subtalar_angle_l	mtp_angle_l	lumbar_extension	lumbar_bending	lumbar_rotation	arm_flex_r	arm_add_r	arm_rot_r	elbow_flex_r	pro_sup_r	wrist_flex_r	wrist_dev_r	arm_flex_l	arm_add_l	arm_rot_l	elbow_flex_l	pro_sup_l	wrist_flex_l	wrist_dev_l
10.11126	5.261670528048542	-8.490112027027951	-49.93581768642098	0	0.9399999999999999	0	44.80711768785326	27.67395939106554	13.98136776389505	50.44424142706019	0.8804181015731233	-5.113049142632647	0	0	-9.673395121769227	-1.558786081258311	-35.72461330302671	0.5011526828046396	0.008746764370143732	-5.113049142632647	0	0	0	0	0	0	-9.902347738090299	0	74.64373599584731	45.16125740029188	0	0	0	-9.902347738090299	0	74.64373599584731	45.16125740029188	0	0
10.11957	5.400116801392381	-8.386137896314128	-49.36246326979814	0	0.9399999999999999	0	43.36653636110831	26.56027670132175	15.07222381151753	51.14851566211299	0.8927100058117592	-5.111760998399161	0	0	-9.66547446251322	-1.480309442307285	-35.15723172039169	0.5114680214479285	0.008926800992927328	-5.111760998399161	0	0	0	0	0	0	-9.913996375577048	0	74.64510036888262	45.15995838489802	0	0	0	-9.913996375577048	0	74.64510036888262	45.15995838489802	0	0
10.17839	5.697414973134499	-7.650639967287467	-45.91259784547409	0	0.9399999999999999	0	42.4257047806821	22.85709195035242	14.49549961405628	50.40288196982269	0.8796962428674912	-5.107493563846172	0	0	-9.234856991148368	-1.335777439917257	-31.67344898734155	0.5127858897664759	0.008949802134193701	-5.107493563846172	0	0	0	0	0	0	-9.954852861584312	0	74.64982582174336	45.15557864214981	0	0	0	-9.954852861584312	0	74.64982582174336	45.15557864214981	0	0
10.18085	6.044249942185249	-7.00167241854733	-43.00521716128899	0	0.9399999999999999	0	41.22935515495497	19.72065386790777	14.19426821376072	50.71917536470133	0.885216604010434	-5.104468932271436	0	0	-8.965280666644427	-1.093643305540838	-28.73960860693109	0.501534226273196	0.00875342355990952	-5.104468932271436	0	0	0	0	0	0	-9.985321904790956	0	74.65331083486613	45.15242581190592	0	0	0	-9.985321904790956	0	74.65331083486613	45.15242581190592	0	0
10.23734	5.75113917649904	-7.13340318684658	-43.61880847131484	0	0.9399999999999999	0	39.20613596816874	19.7163870420735	15.56759483394658	49.63783374838739	0.8663436324669184	-5.10398744246293	0	0	-8.851691112962436	-1.303309518673972	-29.37435674826192	0.5143966000976128	0.008977914332767928	-5.10398744246293	0	0	0	0	0	0	-9.987936282716017	0	74.65366331291048	45.15199865060081	0	0	0	-9.987936282716017	0	74.65366331291048	45.15199865060081	0	0
10.29815	5.710688790761131	-6.650248764498706	-41.46440535792362	0	0.9399999999999999	0	37.60262595010578	17.26438890929673	15.38089007990872	48.44169827826953	0.8454671302134716	-5.103229967676953	0	0	-8.449878272118211	-1.302925751281316	-27.17755295831412	0.5116751673213459	0.00893041637045038	-5.103229967676953	0	0	0	0	0	0	-9.992063651368142	0	74.65421963965007	45.15132545101466	0	0	0	-9.992063651368142	0	74.65421963965007	45.15132545101466	0	0
10.35963	5.430760946438852	-6.573840981912449	-41.10358804063517	0	0.9399999999999999	0	35.39855637907771	16.66250202591984	15.85191141006834	46.49540752965824	0.8114979484490993	-5.102721647195747	0	0	-8.164804520119112	-1.485811886838246	-26.81191324122159	0.5356091852112691	0.009348143785860765	-5.102721647195747	0	0	0	0	0	0	-9.994856931662701	0	74.65459565333406	45.15087215977154	0	0	0	-9.994856931662701	0	74.65459565333406	45.15087215977154	0	0
10.36175	5.313496620248954	-5.90711831231572	-38.24331479760578	0	0.9399999999999999	0	34.09774034519228	13.59257300041587	14.84602391543996	44.4079583248024	0.7750650868562273	-5.099414202590171	0	0	-7.591629403384053	-1.437393026755654	-23.91269254781501	0.5100222493507265	0.008901567509597688	-5.099414202590171	0	0	0	0	0	0	-10.02958581897931	0	74.65855386800814	45.1473555171946	0	0	0	-10.02958581897931	0	74.65855386800814	45.1473555171946	0	0
